<svg width="1e3" height="850" version="1.1" viewBox="0 0 1e3 850" xmlns="http://www.w3.org/2000/svg">
	<style>
        #charies, #l { fill: #594258; }
        #l { transform: scale(0.95600383, 1.0460209); }
        #shitty { fill: #f2bc57; }
        #garden { fill: #bc5b45; }
    </style>
	<g id="charies" aria-label="charlies">
		<path d="m273.14 314.02-2.0533-200.64c0-12.027-2.3467-19.947-6.7467-24.053-4.6933-3.8133-10.853-5.8667-18.48-5.8667h-2.0533c-5.28.58667-9.9733 1.76-13.787 2.9333-4.1067 1.1733-7.04 2.3467-9.0933 3.2267-2.3467.88-4.4 2.3467-6.4533 4.6933s-3.2267 3.8133-3.8133 4.6933c-.58666.88-1.76 2.64-3.52 5.5733 0-10.267.29333-19.947.58666-29.333.29334-9.0933.58667-15.84.88-20.533 0-4.6933.29333-7.92.29333-9.9733v-2.64c0-.29333-1.4667-.58667-4.1067-.58667-4.6933 0-11.147.58667-18.773 1.76s-11.733 2.3467-12.32 3.2267l-2.3467 203.28c2.9333 0 8.8 0 17.307-.58667 8.5066-.58667 14.08-.88 17.013-.88h4.1067l.29334.29333.29333-6.4533c0-9.3867-.58667-28.16-1.1733-56.613-.58667-28.16-.88-42.827-.88-44 0-3.52 2.64-6.7467 8.5067-9.68s10.267-4.4 13.787-4.4c2.0533 0 3.8133 1.4667 4.9867 4.1067 1.1733 2.64 2.0533 4.9867 2.0533 6.7467 0 1.1733-.88 30.8-2.0533 89.173l-1.76 87.707h2.0533c5.5733 0 17.893-.29334 37.253-1.1733zm-52.8-47.52c-15.253 1.1733-28.747 2.3467-40.773 2.9333-12.027.58666-21.12 1.1733-27.28 1.4667-6.4533.29333-11.733.58667-16.133.58667-4.6933.29333-7.6267.29333-9.3867.29333s-2.9333.29333-4.1067.29333-2.3467.29334-3.52.58667v-.58667c0-.29333-.29333-2.0533-.29333-5.5733-.29333-3.2267-.29333-5.8667-.29333-8.2133 0-3.52-.29334-12.613-.29334-27.28-.29333-14.667-.29333-26.4-.29333-35.2 0-39.893 1.76-61.893 5.28-65.707h7.6266l25.813-.88 2.64-37.84h-29.92l-20.827.88c-6.7467.58667-12.907 4.4-18.48 11.733-5.5733 7.6267-8.2133 12.613-8.2133 15.253 0 .58666-.29333 29.627-.58667 87.707-.29333 58.08-.29333 89.467-.29333 93.867 0 4.9867 3.2267 9.3866 9.9733 13.493 6.4533 4.1067 11.733 5.8667 15.253 5.8667 2.9333 0 15.547.29333 37.253.58666l73.333-3.2267z"/>
		<path d="m324.17 276.77c-1.76-2.0533-2.64-13.787-2.64-34.907 0-12.027.58667-20.533 1.76-25.227.58666-2.3467 1.76-4.1067 3.52-5.8667 1.76-1.76 3.8133-2.9333 5.8667-3.8133 2.0533-.58667 4.4-1.1733 6.7467-1.76 2.3467-.58667 4.1067-.88 5.28-.88.88 0 1.76-.29333 2.3467-.29333l-.88 68.64c0 2.9333-1.4667 5.28-4.4 7.3333-2.9333 2.0533-5.5733 2.9333-8.2133 2.9333-3.52 0-6.4533-2.0533-9.3866-6.16zm-3.8133-119.39c0-2.9333.29333-7.92.88-14.96.58666-7.04.88-12.027.88-14.96 0-5.8667 5.5733-8.8 17.013-8.8 3.8133 0 7.04 2.0533 9.3867 5.5733 2.3467 3.8133 3.52 6.4533 3.52 8.2133 0 22-.29333 34.613-.58666 38.133-1.1733 4.9867-12.027 9.9733-32.267 14.96-7.3333 2.0533-13.493 4.6933-18.773 8.2133-5.28 3.52-8.8 6.7467-10.56 9.3867-1.76 2.9333-2.64 4.9867-2.64 6.7467v34.32c0 23.467 0 37.84.29333 42.827.58667 7.6267 3.52 13.787 8.8 18.48 5.28 4.6933 12.32 7.3333 21.12 7.3333h2.0533c4.6933 0 8.2133-.58666 10.853-1.76 2.3467-1.1733 4.9867-3.8133 7.6267-7.92 2.64-3.8133 4.4-6.16 5.28-7.04v6.4533c0 5.28 1.4667 9.3866 4.6933 12.027 2.9333 2.64 6.16 3.8133 9.0933 3.8133 1.1733.58666 3.52.58666 7.3333.58666 6.4533 0 15.253-.29333 26.107-1.1733l-.58667-40.48c-1.1733 0-2.64.29333-3.8133.29333h-2.64c-1.4667 0-2.3467-.29333-2.9333-1.1733-.58666-.58667-1.4667-7.3333-2.64-19.947v-4.1067c0-5.5733.29333-23.467.88-53.68.58666-30.213.88-49.573.88-57.787 0-12.027-.58667-20.533-1.76-25.227s-4.1067-10.56-8.2133-18.187c-3.8133-6.7467-14.667-10.267-32.853-10.267-2.9333 0-7.3333.29333-12.907.29333-5.5733.29333-9.3866.29333-11.733.29333-6.16 0-11.44 2.0533-15.547 5.5733-4.4 3.8133-7.3333 7.3333-8.8 10.56-1.4667 3.52-2.0533 5.8667-2.0533 7.6267 0 1.1733-.29333 9.0933-.29333 23.76-.29333 14.667-.29333 22.293-.29333 22.293 0 .58667 1.4667.58667 4.6933.58667 2.0533 0 6.7467 0 14.08-.29334 7.3333-.29333 12.907-.58666 16.427-.58666z"/>
		<path d="m499.29 306.69.29333-19.36c-.88.29333-2.3467.29333-4.1067.29333h-2.3467c-.58667 0-1.1733-.29333-1.4667-.29333s-.58666-.29333-.58666-.88c-.29334-.29333-.29334-.58666-.29334-.58666s-.29333-.29334-.29333-.88v-1.1733c-1.76-9.3866-2.3467-22.88-2.3467-41.067 0-7.6267-.58667-12.907-1.76-16.133-1.1733-2.9333-3.52-6.16-6.7467-9.3867-4.1067-4.1067-9.3867-6.4533-15.84-7.04 0 0 .87999 0 2.0533-.58667 1.1733-.58666 2.64-1.1733 4.4-2.0533 1.76-.58666 3.52-1.1733 5.28-1.76 3.52-.88 6.7467-2.64 9.68-4.9867 2.9333-2.3467 4.6933-4.4 4.6933-6.16 0 0 0-2.9333.29334-8.8 0-5.8667.29333-12.907.29333-21.413s.29333-16.427.29333-23.467c0-12.907-.29333-22.88-.88-29.333-.58666-5.8667-3.2267-10.56-7.3333-14.373-4.4-3.8133-8.5067-6.16-12.027-7.3333-3.52-1.1733-6.7466-1.76-9.0933-1.76-41.653 0-62.48 0-62.48-.29333l.88 26.4c0 .29333 2.3467.58666 7.3333 1.1733 4.6933.58666 7.3333 1.1733 7.3333 1.1733 0 3.52-1.1733 68.347-2.9333 194.77h34.613l-.58667-94.16c1.1733.29333 2.64.29333 4.9867.29333 2.0533 0 3.8133.29334 5.28.29334 1.1733.29333 2.3467.88 3.2267 1.4667.58666.58667.88 3.8133.88 9.0933 0 5.5733-.58667 15.84-1.1733 30.507-.87999 14.96-1.1733 24.64-1.1733 28.747v2.9333c0 1.1733.29334 1.76.29334 2.0533.29333 4.9867 1.76 8.5067 4.4 10.853 2.3467 2.3467 4.6933 3.2267 7.04 3.2267zm-54.56-115.28-.88-71.573 11.147-1.76h2.3467c2.0533.29334 3.8133 1.1733 5.28 2.9333 1.4667 1.76 2.3467 3.2267 2.64 4.4.29333 1.4667.58667 2.64.58667 3.52v7.3333c0 23.76-.58667 39.893-1.4667 48.693-.88 5.8667-4.1067 8.5067-9.9733 8.5067-3.52 0-6.7467-.58667-9.68-2.0533z"/>
		<path d="m596.04 106.07c8.5067-1.76 12.907-7.04 12.907-15.253 0-4.6933-1.76-8.2133-4.9867-11.147-3.52-2.9333-7.3333-4.4-11.44-4.4-4.1067 0-7.92 1.76-10.853 4.9867-3.2267 3.2267-4.6933 7.3333-4.6933 12.027 0 4.1067 1.76 7.6267 5.5733 10.267 3.8133 2.64 7.6267 3.8133 11.44 3.8133h1.1733c.29334 0 .58667-.29333.88-.29333zm17.307 197.41c0-2.3467-.58667-65.12-1.4667-188.61l-35.787.58667v186.85l30.507 2.3467c4.4 0 6.7467-.29334 6.7467-1.1733z"/>
		<path d="m662.33 157.41c0-2.0533 0-4.9867.58667-9.0933.29333-3.8133.88-8.5066 2.0533-14.373 1.1733-5.8667 2.9333-10.853 5.5733-14.96 2.64-4.1067 5.8667-6.16 9.3866-6.16 8.8 0 13.2 12.32 13.2 36.96v6.16l-.29334 1.1733c0 .29334-1.1733.58667-3.52.88-2.3467.58667-5.5733.88-9.0933 1.1733-3.52.58667-6.7466.58667-9.3866.58667-5.8667 0-8.5067-.58667-8.5067-2.3467zm56.027 58.08-31.387-3.2267v18.48c0 7.6267.29334 12.907.29334 15.84v2.9333c0 .88-.29334 1.76-.29334 2.3467-.29333.58667-.58666 1.1733-.58666 1.4667-.29334.58667-.58667.88-1.1733 1.1733-.58667.58667-.88.88-1.1733.88-.29333 0-.88.29333-1.76.29333h-2.0533-7.6266c-3.52 0-6.16-.88-7.3333-2.64-1.4667-1.76-2.0533-6.4533-2.0533-13.787 0-6.7466.58667-15.84 1.76-27.28 1.1733-11.44 2.64-17.307 3.8133-17.307 1.76 0 10.56-1.4667 26.4-4.4s23.76-4.6933 23.76-5.28v-2.64c0-1.76.29333-3.8133.29333-6.4533 0-2.64.29334-5.5733.29334-9.0933v-10.853c0-4.1067.29333-7.92.29333-11.733 0-8.8-.29333-14.96-.29333-19.067-.58667-4.9867-.88-8.8-1.1733-11.733-.29334-2.64-.88-6.16-2.0533-10.56-1.1733-4.1067-2.64-7.6267-4.6933-9.9733s-4.6933-4.6933-8.2133-7.3333c-3.52-2.3467-7.92-4.4-13.2-5.5733-5.5733-1.1733-12.027-2.0533-19.067-2.3467h-1.4667c-8.8 0-16.427 2.3467-22.293 6.4533-5.8667 4.4-9.9733 9.9733-12.32 16.72-2.3467 7.04-4.1067 12.907-4.6933 17.6-.88 4.9867-1.1733 9.9733-1.1733 14.667v3.8133c0 .58667-.29333 9.9733-.88 27.573-.58666 17.6-1.1733 36.667-1.76 56.613-.58666 19.947-.58666 33.44-.58666 39.893v2.3467c0 11.733 5.28 21.413 15.84 29.04 10.267 7.6267 21.707 11.44 34.027 11.44 9.3867 0 17.6-2.64 24.64-7.92 7.04-5.28 11.147-13.2 12.907-23.76 2.3467-3.52 3.8133-22.587 4.9867-56.613z"/>
		<path d="m813.98 156.23v-26.693c-.58667-4.1067-1.76-10.56-3.52-19.067-1.76-8.5066-3.8133-14.667-5.5733-18.773-3.8133-6.4533-10.853-11.44-21.413-14.373-4.6933-1.1733-8.5066-1.76-11.733-1.76-4.4 0-9.3866.88-14.667 2.3467-5.5733 1.4667-10.56 5.8667-14.667 13.2s-6.16 12.907-6.16 16.72c0 1.1733-.58667 13.2-1.4667 35.787-1.1733 22.88-1.4667 36.373-1.4667 41.067 0 3.8133 1.1733 7.04 3.8133 9.68 2.3467 2.9333 4.9867 4.6933 7.3333 5.8667 2.3467 1.1733 4.6933 1.76 7.04 2.0533h3.52c2.64 0 7.6267 0 14.96-.29334 7.3333 0 12.027-.29333 14.08-.29333h2.3467c1.76.58667 2.64 21.707 2.64 62.773 0 1.76-1.1733 3.52-3.52 4.9867-2.3467 1.4667-4.4 2.0533-6.7466 2.0533-2.3467 0-4.6933-1.76-7.3333-5.28v-1.1733c0-.58667-.29333-1.4667-.29333-2.64v-3.52c0-8.2133 0-20.24.58666-36.08l-35.493.29333-1.76 60.72c0 5.8667 2.0533 10.267 6.7467 13.787 4.6933 3.52 8.2133 4.9867 10.56 4.9867h5.28c3.2267 0 7.3333.29334 12.32.29334h13.493c9.0933 0 15.253 0 18.48-.29334 8.2133-.29333 14.373-6.7466 17.893-19.653v-3.8133c0-4.4-.29333-17.6-.88-39.307-.58666-21.707-.58666-35.2-.58666-40.773 0-4.1067-.29334-7.6267-.88-10.56-.58667-2.64-.88-4.4-1.1733-5.28-.58666-.58667-1.4667-1.4667-2.64-2.64-1.1733-1.1733-2.0533-1.76-2.0533-2.3467-.58667-.58667-1.76-1.1733-2.9333-1.76-1.4667-.58666-3.52-.88-5.8667-1.4667-2.3467-.58667-4.6933-.88-6.4533-1.1733-2.0533 0-4.9867-.29333-8.5067-.88-3.52-.58666-6.16-.87999-7.6267-1.1733-8.2133-.88-12.32-4.9867-12.32-12.32v-46.053c0-.58666 1.1733-.87999 3.52-.87999 6.4533 0 10.267.58666 11.44 1.4667.58667.29333.88 14.373.88 42.24z"/>
    </g>
	<g id="l" aria-label="">
		<path d="m580.18 322.77c-1.5296-104.62-2.1414-189.06-2.1414-253.3 0 0-.61185-.30592-1.8355-.30592-5.2007 0-16.826 1.2237-34.569 3.3651l-6.1184 247.18z"/>
	</g>
	<g id="shitty" aria-label="shitty">
		<path d="m438.41 396.47v-59.253c0-2.9333-1.4667-6.4533-4.1067-10.267-2.64-3.52-5.28-5.5733-8.2133-6.16-2.0533 0-8.8-.29333-20.24-.29333-11.147 0-17.6.29333-18.773.29333-2.9333.58667-6.16 1.4667-9.0933 2.64-3.2267 1.1733-7.04 3.52-11.44 7.3333-4.4 3.8133-6.7467 8.2133-7.04 13.2-1.1733 17.307-1.76 44.293-1.76 80.667v2.0533c0 13.493 4.9867 20.827 15.547 22 4.1067.58667 8.5067.88 12.907.88 2.64 0 5.8667 0 9.9733-.29333 4.1067 0 6.7467-.29333 7.92-.29333 2.3467 0 3.8133.29333 3.8133.88 0 .87999 0 9.3866.58666 25.52.58667 16.133.88 24.64.88 25.52 0 1.76-1.1733 3.52-3.52 5.28-2.3467 1.76-5.5733 2.64-9.0933 2.64-8.8 0-13.2-2.64-13.2-8.5067v-7.04c0-3.8133.29333-6.7467.29333-9.0933 0-7.3333-.58667-11.147-1.1733-11.147-4.6933-1.1733-12.613-1.76-23.76-1.76-4.1067 0-6.16.29333-6.16.87999 0 .58667-.58666 9.68-1.76 26.693-1.1733 17.307-1.76 26.693-1.76 27.867 0 .29334-.29334.88-.29334 1.76v2.0533c0 10.56 6.7467 16.427 20.827 17.6 7.04.88 14.96 1.1733 24.053 1.1733 14.08 0 24.64-.29334 31.68-1.4667 2.9333 0 6.7467-1.76 10.853-5.28 4.1067-3.52 6.4533-8.8 7.04-16.427 0-1.76.29333-5.28.29333-10.853 0-12.907-.58666-29.333-1.76-49.573-1.1733-19.947-2.3467-31.093-3.2267-33.147 0 0-.29333-.58667-.88-1.76-.58666-1.1733-1.1733-1.76-1.1733-2.3467-.29333-.29334-.88-.88-1.4667-2.0533-.58667-1.1733-1.4667-1.76-2.0533-2.3467-.58667-.58667-1.4667-1.1733-2.64-2.0533-1.1733-.58667-2.3467-1.1733-3.52-1.76-1.4667-.29333-2.9333-.58666-4.4-.88-4.4-.58666-9.9733-.88-17.013-.88h-7.6266c-4.1067 0-5.8667-3.2267-5.8667-9.68 0-1.76-.29334-10.853-.58667-27.28-.58667-16.133-.58667-26.4-.58667-30.507v-2.9333h1.76c1.1733 0 2.64-.29333 4.4-.29333 1.76 0 3.2267-.29333 4.6933-.29333 3.52 0 5.5733.58666 5.5733 1.1733 0 .29333-.29333 2.64-.29333 7.3333s-.29333 10.267-.29333 16.72v15.253c0 5.5733 0 8.2133.29333 8.2133s10.853.29333 31.387.29333z"/>
		<path d="m556.04 538.15-2.0533-139.92c0-12.027-2.3467-19.947-6.7467-24.053-4.6933-3.8133-10.853-5.8667-18.48-5.8667h-2.0533c-8.5067 1.1733-14.08 2.3467-17.013 3.52-2.9333 1.1733-5.8667 3.8133-8.8 7.92-2.9333 4.4-5.28 7.6266-7.04 9.68 0-9.9733.29333-20.24.58667-30.507.29333-9.9733.58666-17.893.87999-23.173 0-5.28.29334-8.8.29334-10.853v-2.64c0-.29334-1.4667-.58667-4.1067-.58667-4.6933 0-11.147.58667-18.773 1.76s-11.733 2.3467-12.32 3.2267c-.58667.58667-.88 13.2-.88 37.253-.29334 24.053-.58667 56.027-.58667 95.627-.29333 39.6-.58666 70.4-.88 92.107 2.9333 0 8.8 0 17.307-.58667 8.5067-.58666 14.08-.88 17.013-.88.88 0 1.76.29334 2.3467.29334h1.76.29333l.29333-6.4533c0-9.3867-.58666-31.093-1.1733-65.12s-.88-51.333-.88-52.507c0-3.52 2.0533-6.7466 6.7467-9.68s8.5067-4.4 11.733-4.4c2.0533 0 3.8133 1.4667 4.9867 4.1067 1.1733 2.64 2.0533 4.9867 2.0533 6.7467 0 1.1733-.58666 20.533-1.76 58.667l-2.0533 57.493h2.0533c5.5733 0 17.893-.29333 37.253-1.1733z"/>
		<path d="m590.65 353.35c8.5066-1.76 12.907-7.04 12.907-15.253 0-4.6933-1.76-8.2133-4.9867-11.147-3.52-2.9333-7.3333-4.4-11.44-4.4s-7.92 1.76-10.853 4.9867c-3.2267 3.2267-4.6933 7.3333-4.6933 12.027 0 4.1067 1.76 7.6267 5.5733 10.267s7.6267 3.8133 11.44 3.8133h1.1733c.29333 0 .58666-.29333.88-.29333zm17.307 197.41c0-2.3467-.58666-65.12-1.4667-188.61l-35.787.58666v186.85l30.507 2.3467c4.4 0 6.7467-.29333 6.7467-1.1733z"/>
		<path d="m698.89 379.46c.29333-.58666 1.4667-4.9867 3.52-12.907 2.0533-7.6267 3.2267-11.733 3.2267-12.027h-2.3467c-2.64 0-8.8.29333-18.773.29333h-18.48-2.3467v-.88c0-1.76-.29333-7.04-.58666-16.133l-.58667-13.493s-4.4-.29333-12.907-.29333h-13.2c-.58666 0-.58666 10.267-.58666 30.507 0 .29333-1.4667.29333-4.1067.29333h-4.9867c-1.76 0-3.52-.29333-4.6933-.29333h-2.3467c-.58666 0-.58666 9.68-.58666 28.453 0 .58667.58666.88 2.3467.88 1.4667.29333 3.2267.58666 5.28.58666h3.2267c.29333.29334.58666 15.253.58666 45.173 0 15.84-.29333 38.133-.29333 66.587v47.813 4.1067h3.2267c21.707 0 33.147-.29333 33.733-.88v-6.16c0-8.5067-.29333-34.32-.29333-77.147-.29334-42.827-.29334-68.933-.29334-78.027v-6.4533c0-.29333 1.1733-.58666 3.8133-.58666 2.0533 0 6.16.29333 12.32.58666 5.8667.58667 9.9733.58667 12.32.58667 2.3467 0 3.8133 0 3.8133-.58667z"/>
		<path d="m898.36 339.27-34.613-2.3467v7.6267c0 53.68-.29334 87.707-.88 102.37-.29334 4.6933-1.4667 8.8-3.8133 11.733-2.3467 2.9333-5.8667 4.4-10.267 4.4-2.9333 0-5.5733-1.1733-7.6266-4.1067-2.3467-2.9333-3.8133-5.5733-4.4-7.92-.58667-2.3467-1.1733-4.4-1.1733-6.16v-2.3467c0-13.787.58666-34.32 2.0533-61.893l-32.853-6.7467c-.58666 9.3866-1.1733 22-1.76 37.253-.58666 15.253-1.1733 28.453-1.76 39.6-.58667 11.147-.58667 17.893-.58667 20.533 0 6.4533 3.2267 12.907 9.9733 19.653 6.4533 7.04 13.2 10.267 20.24 10.267 2.3467 0 5.28 0 8.8-.29333 3.52 0 6.7467-.29333 9.68-.88 2.9333-.29333 5.8667-.58667 8.5067-1.1733 2.64-.29334 4.9867-.58667 6.7467-.88l2.64-.29333s.29334 3.8133.29334 11.44v46.64c0 7.3333-31.68 10.853-94.747 10.853h-27.573c-11.147 0-17.6-.29333-19.947-.29333h-4.9867l1.4667 39.013h11.733c3.2267 0 5.5733.29333 7.3333.29333h4.1067 3.2267c.58667 0 4.1067-.29333 10.267-.88 27.28 1.1733 45.173 1.4667 53.387 1.4667 56.32 0 84.48-7.3333 84.48-22v-.58666c0-1.1733.29333-15.547.58667-43.12.29333-27.573.58666-61.013.88-100.03.29333-39.013.58666-72.747.58666-101.2zm-151.65 211.2h44.293l-4.4-187.15 68.053-1.1733-4.4-41.653-144.03 2.0533.88 52.213 40.48-.88z"/>
	</g>
	<g id="garden" aria-label="garden">
		<path d="m204.94 623.88c0 4.9867-.29333 9.68-.29333 13.787-.29333 4.1067-.58667 7.6267-.58667 9.9733v4.4c0 .58667.58667.58667 1.76.58667 2.3467 0 6.16-.29333 11.733-1.4667 5.5733-.88 10.853-1.76 15.547-2.9333 4.6933-1.1733 7.04-1.76 7.04-2.0533l.29334-2.64c0-1.76.29333-4.6933.29333-8.2133 0-3.52.29333-7.3333.29333-11.44 0-6.4533-.29333-11.44-.29333-15.547-.58667-6.4533-1.4667-12.32-3.2267-17.6-1.76-4.9867-4.4-9.9733-8.2133-14.96-3.8133-4.6933-9.3867-8.5066-17.013-11.44-7.6267-2.9333-16.72-4.4-27.28-4.9867h-1.4667c-8.8 0-16.427 2.3467-22.293 6.4533-5.8667 4.4-9.9733 9.9733-12.32 16.72-2.3467 7.04-4.1067 12.907-4.6933 17.6-.88 4.9867-1.1733 9.9733-1.1733 14.667v3.8133c0 .58667-.29334 10.267-.88 28.747-.58667 18.773-.88 38.427-1.4667 59.547-.58666 21.12-.88 35.2-.88 41.947v2.3467c0 11.733 6.16 21.413 17.893 29.04s25.227 11.147 40.48 11.147c11.44 0 22-2.3467 31.387-7.6266 9.3867-4.9867 16.427-12.613 20.827-22.88 2.3467-3.52 3.8133-22.587 4.9867-56.613-22-5.5733-38.427-8.5067-49.28-8.5067-5.5733 0-10.56.58667-15.253 1.1733l-.58667 37.547c1.76.58667 3.8133.88 5.8667.88 3.52 0 6.7467-1.1733 9.3867-3.8133 0-.88-.29334-2.3467-.29334-4.6933v-4.4c0-1.1733 0-2.0533.29334-2.0533h.88c.58666.29333 1.4667.58666 2.64.58666h3.52v13.493c0 3.52-.88 5.8667-2.64 7.6267s-3.8133 2.64-5.8667 2.9333c-2.3467.29333-5.5733.58666-9.9733.58666h-1.1733c-4.9867 0-8.8-1.4667-11.44-4.6933-2.64-2.9333-4.1067-7.04-4.4-12.32v-91.813c0-2.0533.58666-16.133 2.3467-42.533l19.36-1.76c2.9333 0 4.4.29334 4.4.88 1.1733 8.8 1.76 19.067 1.76 30.507z"/>
		<path d="m302.62 750.6c-1.76-2.0533-2.64-13.787-2.64-34.907 0-12.027.58667-20.533 1.76-25.227.58667-2.3467 1.76-4.1067 3.52-5.8667 1.76-1.76 3.8133-2.9333 5.8667-3.8133 2.0533-.58667 4.4-1.1733 6.7466-1.76 2.3467-.58666 4.1067-.88 5.28-.88.88 0 1.76-.29333 2.3467-.29333l-.88 68.64c0 2.9333-1.4667 5.28-4.4 7.3333s-5.5733 2.9333-8.2133 2.9333c-3.52 0-6.4533-2.0533-9.3866-6.16zm-3.8133-119.39c0-2.9333.29333-7.92.88-14.96.58666-7.04.88-12.027.88-14.96 0-5.8667 5.5733-8.8 17.013-8.8 3.8133 0 7.04 2.0533 9.3867 5.5733 2.3467 3.8133 3.52 6.4533 3.52 8.2133 0 22-.29333 34.613-.58666 38.133-1.1733 4.9867-12.027 9.9733-32.267 14.96-7.3333 2.0533-13.493 4.6933-18.773 8.2133-5.28 3.52-8.8 6.7467-10.56 9.3867-1.76 2.9333-2.64 4.9867-2.64 6.7467v34.32c0 23.467 0 37.84.29333 42.827.58667 7.6267 3.52 13.787 8.8 18.48 5.28 4.6933 12.32 7.3333 21.12 7.3333h2.0533c4.6933 0 8.2133-.58667 10.853-1.76 2.3467-1.1733 4.9867-3.8133 7.6267-7.92 2.64-3.8133 4.4-6.16 5.28-7.04v6.4533c0 5.28 1.4667 9.3867 4.6933 12.027 2.9333 2.64 6.16 3.8133 9.0933 3.8133 1.1733.58667 3.52.58667 7.3333.58667 6.4533 0 15.253-.29333 26.107-1.1733l-.58667-40.48c-1.1733 0-2.64.29333-3.8133.29333h-2.64c-1.4667 0-2.3467-.29333-2.9333-1.1733-.58667-.58666-1.4667-7.3333-2.64-19.947v-4.1067c0-5.5733.29333-23.467.88-53.68.58666-30.213.88-49.573.88-57.787 0-12.027-.58667-20.533-1.76-25.227-1.1733-4.6933-4.1067-10.56-8.2133-18.187-3.8133-6.7467-14.667-10.267-32.853-10.267-2.9333 0-7.3333.29334-12.907.29334-5.5733.29333-9.3867.29333-11.733.29333-6.16 0-11.44 2.0533-15.547 5.5733-4.4 3.8133-7.3333 7.3333-8.8 10.56-1.4667 3.52-2.0533 5.8667-2.0533 7.6267 0 1.1733-.29333 9.0933-.29333 23.76-.29333 14.667-.29333 22.293-.29333 22.293 0 .58667 1.4667.58667 4.6933.58667 2.0533 0 6.7467 0 14.08-.29333 7.3333-.29334 12.907-.58667 16.427-.58667z"/>
		<path d="m477.74 780.52.29334-19.36c-.88.29334-2.3467.29334-4.1067.29334h-2.3467c-.58667 0-1.1733-.29334-1.4667-.29334-.29334 0-.58667-.29333-.58667-.88-.29333-.29333-.29333-.58666-.29333-.58666s-.29334-.29333-.29334-.88v-1.1733c-1.76-9.3867-2.3467-22.88-2.3467-41.067 0-7.6267-.58667-12.907-1.76-16.133-1.1733-2.9333-3.52-6.16-6.7467-9.3867-4.1067-4.1067-9.3866-6.4533-15.84-7.04 0 0 .88 0 2.0533-.58666 1.1733-.58667 2.64-1.1733 4.4-2.0533 1.76-.58667 3.52-1.1733 5.28-1.76 3.52-.88 6.7467-2.64 9.68-4.9867 2.9333-2.3467 4.6933-4.4 4.6933-6.16 0 0 0-2.9333.29333-8.8 0-5.8667.29333-12.907.29333-21.413 0-8.5066.29334-16.427.29334-23.467 0-12.907-.29334-22.88-.88-29.333-.58667-5.8667-3.2267-10.56-7.3333-14.373-4.4-3.8133-8.5067-6.16-12.027-7.3333-3.52-1.1733-6.7467-1.76-9.0933-1.76-41.653 0-62.48 0-62.48-.29333l.88 26.4c0 .29333 2.3467.58667 7.3333 1.1733 4.6933.58667 7.3333 1.1733 7.3333 1.1733 0 3.52-1.1733 68.347-2.9333 194.77h34.613l-.58667-94.16c1.1733.29334 2.64.29334 4.9867.29334 2.0533 0 3.8133.29333 5.28.29333 1.1733.29333 2.3467.88 3.2267 1.4667.58667.58666.88 3.8133.88 9.0933 0 5.5733-.58667 15.84-1.1733 30.507-.88 14.96-1.1733 24.64-1.1733 28.747v2.9333c0 1.1733.29333 1.76.29333 2.0533.29333 4.9867 1.76 8.5067 4.4 10.853 2.3467 2.3467 4.6933 3.2267 7.04 3.2267zm-54.56-115.28-.87999-71.573 11.147-1.76h2.3467c2.0533.29333 3.8133 1.1733 5.28 2.9333 1.4667 1.76 2.3467 3.2267 2.64 4.4.29334 1.4667.58667 2.64.58667 3.52v7.3333c0 23.76-.58667 39.893-1.4667 48.693-.88 5.8667-4.1067 8.5067-9.9733 8.5067-3.52 0-6.7467-.58666-9.68-2.0533z"/>
		<path d="m648.46 644.71c0-1.76 0-4.6933.58667-8.2133.29333-3.52.88-7.6267 2.0533-12.907 1.1733-4.9867 2.9333-9.3866 5.5733-12.907s5.8667-5.5733 9.3867-5.5733c8.8 0 13.2 11.147 13.2 32.853v5.5733l-.29333.88c0 .29333-1.1733.58666-3.52.88-2.3467.58666-5.5733.87999-9.0933 1.1733-3.52.29333-6.7467.29333-9.3867.29333-5.8667 0-8.5067-.58667-8.5067-2.0533zm56.027 42.24-31.387-2.9333v10.267c0 2.64.29333 5.28.29333 7.92 0 3.52-.58667 5.8667-1.4667 6.7467-.88.88-2.9333 1.1733-5.8667 1.1733h-7.3333c-2.3467 0-4.1067 0-5.28-.58667-1.1733-.29333-2.3467-1.4667-2.9333-3.8133-.88-2.0533-1.1733-5.28-1.1733-9.9733 0-4.9867.58667-9.0933 1.76-12.613 1.1733-3.52 2.3467-5.28 3.8133-5.28 1.76 0 10.56-1.1733 26.4-3.8133s23.76-4.4 23.76-4.9867v-2.3467c0-1.4667.29333-3.52.29333-5.8667 0-2.3467.29333-4.9867.29333-7.92v-9.68c0-3.52.29333-6.7466.29333-10.267 0-7.6267-.29333-13.493-.29333-17.013-.58666-6.7466-1.1733-12.027-2.0533-15.547-.88-3.52-2.64-7.6267-5.5733-12.32s-7.92-7.92-14.667-10.267c-6.7467-2.3467-15.547-3.52-26.107-4.1067h-1.4667c-8.8 0-16.427 2.0533-22.293 5.8667s-9.9733 8.8-12.32 14.96c-2.3467 6.16-4.1067 11.44-4.6933 15.547-.88 4.4-1.1733 8.8-1.1733 12.907v3.52c0 .58667-.29333 7.04-.87999 19.067-.58667 12.027-1.1733 25.227-1.76 39.307-.58667 14.08-.58667 24.053-.58667 29.92v2.3467c0 10.267 5.28 18.773 15.84 25.52 10.267 7.04 21.707 10.267 34.027 10.267 9.3867 0 17.6-2.3467 24.64-7.04 7.04-4.6933 11.147-11.733 12.907-21.12 2.3467-3.2267 3.8133-15.84 4.9867-37.84zm-142.85-43.707c-2.9333 0-10.56 0-22.88-.58666-12.32-.29333-22-.58667-29.04-.58667-.88 0-1.76.29334-2.9333.29334s-2.64.58666-4.6933 1.4667c-2.3467.88-4.1067 2.0533-5.8667 3.52-1.76 1.4667-3.52 3.8133-4.6933 6.7467-1.1733 2.9333-1.76 6.4533-1.76 10.56l-.29334 11.147c-.29333 7.6267-.58666 16.72-.58666 27.867v29.627c0 16.72.29333 28.16.88 34.613.58666 5.8667 3.2267 10.853 7.92 14.667s9.3866 6.16 13.493 7.3333c4.1067 1.1733 7.3333 1.4667 9.9733 1.4667 1.1733 0 31.387.88 90.933 2.3467 59.253 1.4667 90.933 2.0533 95.04 2.0533h.58666l2.64-34.32h-3.52c-5.8667 0-23.467.29333-52.507.58666-29.333.58667-46.933.58667-52.8.58667-2.9333 0-4.9867-1.76-5.8667-5.28-1.1733-3.52-1.4667-11.44-1.4667-23.467 0-7.04.29333-24.933.88-53.68.58666-28.747.88-55.733 1.4667-80.96l11.733-4.1067-3.2267-34.907-7.6267.29334-40.773.29333zm-1.76 26.693.88 88.587c-7.92 1.1733-15.547 1.4667-22.88 1.4667h-2.64c-1.1733 0-2.0533-.29333-2.3467-.29333-2.64 0-4.6933-.88-6.16-2.64-1.4667-1.76-2.3467-3.2267-2.64-4.6933-.58667-1.1733-.58667-2.3467-.58667-3.52l.29334-13.493c.29333-8.8.58666-19.067.88-30.213 0-11.147.29333-19.653.29333-25.227v-4.4c0-4.6933 3.8133-7.3333 11.733-7.3333 2.3467 0 6.4533.29333 11.733.88 5.28.58667 9.0933.88 11.44.88z"/>
		<path d="m799.83 788.4-1.6333-143.5c0-9.8-1.4-16.333-4.2-19.6-2.8-3.2667-7.2333-4.9-12.833-4.9h-1.4c-4.4333 0-8.4.69999-12.133 2.1-3.7333 1.4-6.3 2.5667-7.9333 3.7333-1.6333 1.4-3.9667 3.2667-6.7666 6.0667-3.0333 2.8-4.9 4.4333-5.6 4.9v-14.933c0-3.7333-.46667-5.8333-.93334-5.8333h-.46666c-2.8 0-6.7667.46667-12.133 1.1667-5.6.93333-8.4 1.6333-8.8666 2.3333-.23333.46667-.23333 4.2-.23333 11.433 0 5.8333 0 24.033.46666 54.6.23333 30.8.46667 55.3.46667 73.967 0 15.867-.23334 27.533-.23334 34.767 9.8 0 19.367-1.4 28.233-3.9667.93333 0 1.4-17.733 1.4-52.733 0-10.267-.23333-21.933-.23333-34.767 0-12.6-.23333-23.333-.23333-31.967v-13.533c0-2.8 1.6333-5.3666 5.1333-7.2333 3.2667-1.8667 6.3-3.0333 9.1-3.0333 1.6333 0 3.0333 1.1667 3.9667 3.2667.93333 2.1 1.6333 3.9667 1.6333 5.3667 0 .93333-.7 22.867-1.6333 65.8-1.1667 43.167-1.6333 64.867-1.6333 64.867 0 .46666 9.5666.93333 28.7 1.6333z"/>
	</g>
</svg>
